<?xml version="1.0" encoding="utf-8"?>
<!-- Generator: Adobe Illustrator 19.1.0, SVG Export Plug-In . SVG Version: 6.00 Build 0)  -->
<svg version="1.1" id="Layer_1" xmlns="http://www.w3.org/2000/svg" xmlns:xlink="http://www.w3.org/1999/xlink" x="0px" y="0px"
	 viewBox="0 0 192 156" style="enable-background:new 0 0 192 156;" xml:space="preserve">
<style type="text/css">
	.st0{fill:none;stroke:#000000;stroke-linecap:round;stroke-linejoin:round;stroke-miterlimit:10;}
	.st1{fill:none;stroke:#000000;stroke-width:2;stroke-linecap:round;stroke-linejoin:round;stroke-miterlimit:10;}
	.st2{fill:none;stroke:#000000;stroke-width:2;stroke-miterlimit:10;}
	.st3{fill:none;stroke:#000000;stroke-linecap:round;stroke-miterlimit:10;}
	.st4{fill:none;stroke:#000000;stroke-width:1.5;stroke-miterlimit:10;}
	.st5{fill:none;stroke:#000000;stroke-width:2;stroke-linecap:round;stroke-miterlimit:10;}
	.st6{fill:none;}
	.st7{stroke:#000000;stroke-linecap:round;stroke-linejoin:round;stroke-miterlimit:10;}
	.st8{fill:none;stroke:#000000;stroke-miterlimit:10;}
	.st9{fill:#FFFFFF;stroke:#000000;stroke-miterlimit:10;}
	.st10{fill:#11ACCD;}
	.st11{fill:none;stroke:#11ACCD;stroke-width:3;stroke-linecap:round;stroke-miterlimit:10;}
	.st12{fill:#FF9C39;}
	.st13{fill:none;stroke:#FF9C39;stroke-width:2;stroke-linecap:round;stroke-miterlimit:10;}
	.st14{fill:none;stroke:#1FAB54;stroke-width:2;stroke-linecap:round;stroke-miterlimit:10;}
	.st15{fill:#1FAB54;}
	.st16{font-family:'KaTeX_Main-Regular';}
	.st17{font-size:21px;}
</style>
<g>
	<polyline class="st0" points="138,82.5 138,120 138,144 48,144 48,120 	"/>
	<line class="st1" x1="150" y1="82.5" x2="126" y2="82.5"/>
	<line class="st1" x1="156" y1="82.5" x2="120" y2="82.5"/>
	<polyline class="st1" points="120,73.5 138,73.5 156,73.5 	"/>
	<polyline class="st0" points="48,36 48,12 138,12 138,36 138,73.5 	"/>
</g>
<g>
	<line class="st3" x1="48" y1="108" x2="48" y2="120"/>
	<path class="st5" d="M48,94.2c-5,0-9,3.1-9,6.9s4,6.9,9,6.9"/>
	<path class="st5" d="M48,94.2c5,0,9,1,9,2.3s-4,2.3-9,2.3"/>
	<path class="st5" d="M48,84.9c-5,0-9,3.1-9,6.9c0,3.8,4,6.9,9,6.9"/>
	<path class="st5" d="M48,84.9c5,0,9,1,9,2.3c0,1.3-4,2.3-9,2.3"/>
	<path class="st5" d="M48,75.7c-5,0-9,3.1-9,6.9s4,6.9,9,6.9"/>
	<path class="st5" d="M48,75.7c5,0,9,1,9,2.3c0,1.3-4,2.3-9,2.3"/>
	<path class="st5" d="M48,66.5c-5,0-9,3.1-9,6.9s4,6.9,9,6.9"/>
	<path class="st5" d="M48,66.5c5,0,9,1,9,2.3s-4,2.3-9,2.3"/>
	<path class="st5" d="M48,57.2c5,0,9,1,9,2.3c0,1.3-4,2.3-9,2.3"/>
	<path class="st5" d="M48,57.2c-5,0-9,3.1-9,6.9s4,6.9,9,6.9"/>
	<path class="st5" d="M48,48c-5,0-9,3.1-9,6.9s4,6.9,9,6.9"/>
	<line class="st3" x1="48" y1="36" x2="48" y2="48"/>
	<rect x="36" y="36" class="st6" width="24" height="84"/>
</g>
<text transform="matrix(1 0 0 1 12 72)" class="st16 st17">L</text>
<text transform="matrix(1 0 0 1 162 72)" class="st16 st17">C</text>
</svg>
